# xmcd
#
# Track frame offsets: 
#        150
#        11717
#        32162
#        65705
#        84960
#        102120
#        113677
#        128985
#        148487
#        169122
#        189937
#        204520
#        223572
#
# Disc length: 3176 seconds
#
# Revision: 0
# Processed by: cddbd v1.5.2PL0 Copyright (c) Steve Scherf et al.
# Submitted via: ExactAudioCopy v0.99pb3
#
DISCID=b80c660d
DTITLE=Skeeter Brandon and Hwy 61 - Rockin' With The Blues
DYEAR=1993
DGENRE=Blues
TTITLE0=Aw Shucks, Baby
TTITLE1=Sparks
TTITLE2=Soap Opera Blues
TTITLE3=Bad Thing
TTITLE4=The Last Goodbye
TTITLE5=Strollie Bun
TTITLE6=You're Jinglin', Baby
TTITLE7=Please, Please
TTITLE8=When The Axe Comes Down
TTITLE9=Just Another Day
TTITLE10=That's What Lovin' You Has Done To Me
TTITLE11=Rockin' With The Blues
TTITLE12=Bug Out
EXTD=
EXTT0=
EXTT1=
EXTT2=
EXTT3=
EXTT4=
EXTT5=
EXTT6=
EXTT7=
EXTT8=
EXTT9=
EXTT10=
EXTT11=
EXTT12=
PLAYORDER=
